<svg xmlns="http://www.w3.org/2000/svg" xmlns:xlink="http://www.w3.org/1999/xlink" width="888" zoomAndPan="magnify" viewBox="0 0 666 202.499994" height="270" preserveAspectRatio="xMidYMid meet" version="1.2"><g id="a0eb54a6a5"><path style=" stroke:none;fill-rule:nonzero;fill:#edf2f8;fill-opacity:1;" d="M 136.679688 3.835938 C 155.359375 3.777344 174.042969 3.730469 192.730469 3.703125 C 194.933594 3.699219 197.140625 3.695312 199.34375 3.691406 C 199.785156 3.691406 200.222656 3.691406 200.675781 3.691406 C 207.785156 3.679688 214.898438 3.660156 222.007812 3.636719 C 229.304688 3.609375 236.597656 3.597656 243.890625 3.589844 C 247.992188 3.585938 252.089844 3.578125 256.191406 3.558594 C 260.042969 3.542969 263.898438 3.535156 267.75 3.539062 C 269.167969 3.539062 270.585938 3.535156 272.003906 3.523438 C 273.933594 3.511719 275.863281 3.515625 277.796875 3.523438 C 278.363281 3.515625 278.921875 3.507812 279.507812 3.5 C 281.84375 3.523438 283.300781 3.613281 285.351562 4.792969 C 286.792969 7.296875 286.617188 9.535156 286.535156 12.378906 C 286.53125 12.984375 286.523438 13.589844 286.519531 14.214844 C 286.492188 16.253906 286.453125 18.285156 286.410156 20.324219 C 286.390625 21.785156 286.371094 23.242188 286.355469 24.699219 C 286.320312 27.84375 286.273438 30.988281 286.222656 34.132812 C 286.148438 39.113281 286.105469 44.09375 286.074219 49.074219 C 286.0625 50.332031 286.0625 50.332031 286.054688 51.617188 C 286.042969 53.335938 286.03125 55.058594 286.019531 56.777344 C 285.988281 61.195312 285.957031 65.617188 285.921875 70.035156 C 285.914062 70.699219 285.914062 70.699219 285.910156 71.378906 C 285.847656 78.546875 285.738281 85.71875 285.617188 92.886719 C 285.488281 100.261719 285.425781 107.632812 285.414062 115.003906 C 285.402344 119.144531 285.363281 123.273438 285.257812 127.40625 C 283.847656 143.582031 283.847656 143.582031 288.519531 158.394531 C 291.953125 161.949219 296.296875 163.742188 300.925781 165.238281 C 303.292969 166.121094 304.390625 167.148438 305.90625 169.140625 C 306.863281 171.828125 306.859375 174.257812 305.824219 176.902344 C 303.972656 179 302.414062 180.085938 299.625 180.507812 C 296.4375 180.136719 294.289062 178.640625 291.613281 176.941406 C 291.050781 176.59375 290.488281 176.25 289.90625 175.890625 C 288.046875 174.738281 286.195312 173.574219 284.34375 172.410156 C 283.019531 171.585938 281.691406 170.761719 280.367188 169.9375 C 277.066406 167.882812 273.773438 165.816406 270.484375 163.75 C 268.78125 162.683594 267.078125 161.621094 265.367188 160.558594 C 264.878906 160.253906 264.386719 159.945312 263.882812 159.632812 C 262.980469 159.070312 262.085938 158.515625 261.183594 157.957031 C 258.28125 156.148438 258.28125 156.148438 257.554688 155.421875 C 257.492188 153.730469 257.472656 152.050781 257.476562 150.359375 C 257.476562 149.550781 257.476562 149.550781 257.476562 148.730469 C 257.476562 146.917969 257.476562 145.105469 257.480469 143.289062 C 257.480469 141.996094 257.480469 140.703125 257.480469 139.410156 C 257.480469 135.882812 257.484375 132.359375 257.488281 128.835938 C 257.492188 125.15625 257.496094 121.476562 257.496094 117.800781 C 257.496094 110.828125 257.503906 103.851562 257.507812 96.882812 C 257.515625 88.949219 257.519531 81.011719 257.523438 73.078125 C 257.53125 56.746094 257.542969 40.417969 257.554688 24.089844 C 256.832031 24.234375 256.109375 24.375 255.359375 24.519531 C 254.40625 24.703125 253.445312 24.886719 252.492188 25.070312 C 252.015625 25.164062 251.535156 25.257812 251.046875 25.355469 C 248.804688 25.785156 246.78125 26.050781 244.488281 26.050781 C 244.488281 68.957031 244.488281 111.867188 244.488281 156.074219 C 245.566406 156.507812 246.644531 156.9375 247.753906 157.382812 C 250.226562 158.878906 252.597656 160.53125 254.980469 162.160156 C 255.632812 162.59375 256.277344 163.027344 256.949219 163.476562 C 257.574219 163.898438 258.199219 164.328125 258.84375 164.765625 C 259.414062 165.152344 259.980469 165.535156 260.566406 165.933594 C 262.574219 167.535156 264.449219 169.238281 265.066406 171.796875 C 264.980469 174.671875 264.722656 176.667969 262.78125 178.945312 C 260.195312 180.453125 257.890625 180.5 254.941406 180.25 C 253.117188 179.46875 251.523438 178.417969 249.878906 177.308594 C 249.417969 177.007812 248.953125 176.707031 248.476562 176.398438 C 245.359375 174.359375 242.347656 172.195312 239.355469 169.972656 C 236.742188 168.089844 234.066406 166.308594 231.378906 164.527344 C 225.230469 160.453125 219.109375 156.332031 213.003906 152.195312 C 212.53125 151.875 212.058594 151.558594 211.574219 151.226562 C 209.144531 149.582031 206.714844 147.9375 204.285156 146.296875 C 201.425781 144.359375 198.566406 142.421875 195.707031 140.488281 C 195.015625 140.019531 195.015625 140.019531 194.308594 139.542969 C 192.453125 138.289062 190.597656 137.03125 188.738281 135.777344 C 184.234375 132.726562 179.726562 129.679688 175.226562 126.625 C 174.367188 126.042969 173.515625 125.464844 172.65625 124.882812 C 170.5625 123.460938 168.46875 122.039062 166.378906 120.609375 C 162.550781 117.996094 158.703125 115.425781 154.773438 112.96875 C 152.953125 111.832031 151.144531 110.679688 149.335938 109.527344 C 148.484375 108.988281 147.621094 108.457031 146.757812 107.9375 C 141.488281 104.769531 138.382812 102.003906 136.496094 95.960938 C 134.367188 87.101562 134.582031 78.375 138.824219 70.164062 C 144.398438 61.171875 152.519531 56.007812 162.601562 53.3125 C 167.90625 52.15625 172.179688 52.1875 177.839844 52.1875 C 177.839844 45.074219 177.839844 37.957031 177.839844 30.625 C 175.253906 30.625 172.664062 30.625 170 30.625 C 156.28125 29.664062 144.972656 23.914062 136.027344 13.636719 C 134.042969 10.691406 134.042969 10.691406 134.148438 9.101562 C 134.910156 7.304688 135.800781 5.578125 136.679688 3.835938 Z M 207.242188 28.011719 C 207.242188 28.59375 207.242188 29.179688 207.242188 29.777344 C 207.246094 35.28125 207.230469 40.777344 207.195312 46.277344 C 207.175781 49.105469 207.164062 51.929688 207.167969 54.757812 C 207.171875 57.488281 207.15625 60.214844 207.128906 62.941406 C 207.121094 63.984375 207.121094 65.027344 207.128906 66.066406 C 207.136719 67.523438 207.121094 68.980469 207.097656 70.4375 C 207.09375 71.269531 207.089844 72.097656 207.089844 72.957031 C 206.589844 75.058594 206.589844 75.058594 204.714844 76.65625 C 202.214844 77.894531 201.402344 77.769531 198.75 77.015625 C 198.300781 76.894531 197.851562 76.777344 197.394531 76.65625 C 195.867188 76.25 194.347656 75.816406 192.832031 75.378906 C 184.535156 73.011719 177.964844 71.984375 169.847656 75.726562 C 166.417969 77.636719 164.25 79.878906 162.816406 83.546875 C 161.929688 87.003906 161.25 90.460938 160.855469 94.003906 C 160.792969 94.464844 160.730469 94.925781 160.667969 95.402344 C 160.5 96.960938 160.5 96.960938 160.855469 99.230469 C 162.539062 100.839844 162.539062 100.839844 164.773438 101.84375 C 165.867188 102.410156 165.867188 102.410156 166.980469 102.988281 C 167.546875 103.257812 168.109375 103.527344 168.695312 103.800781 C 168.78125 102.917969 168.78125 102.917969 168.867188 102.011719 C 169.585938 95.757812 170.617188 90.8125 175.558594 86.609375 C 181.695312 82.453125 188.730469 81.414062 195.886719 82.652344 C 201.871094 83.890625 207.019531 86.144531 212.382812 89.03125 C 214.242188 90.183594 214.242188 90.183594 215.738281 90.082031 C 215.738281 69.382812 215.738281 48.683594 215.738281 27.359375 C 212.753906 27.359375 210.164062 27.546875 207.242188 28.011719 Z M 207.242188 28.011719 "/><path style=" stroke:none;fill-rule:nonzero;fill:#edf2f8;fill-opacity:1;" d="M 367.460938 3.34375 C 368.613281 3.324219 369.773438 3.324219 370.925781 3.34375 C 371.566406 3.335938 372.199219 3.332031 372.859375 3.324219 C 374.996094 3.3125 377.140625 3.324219 379.28125 3.339844 C 380.8125 3.335938 382.347656 3.328125 383.878906 3.320312 C 388.042969 3.304688 392.214844 3.316406 396.378906 3.332031 C 400.292969 3.34375 404.210938 3.335938 408.128906 3.332031 C 416.355469 3.324219 424.589844 3.339844 432.820312 3.363281 C 439.878906 3.386719 446.941406 3.386719 454 3.375 C 462.199219 3.359375 470.398438 3.355469 478.597656 3.371094 C 482.933594 3.375 487.273438 3.378906 491.617188 3.371094 C 495.695312 3.363281 499.78125 3.375 503.859375 3.394531 C 505.359375 3.398438 506.855469 3.398438 508.355469 3.394531 C 510.402344 3.386719 512.445312 3.398438 514.488281 3.417969 C 515.082031 3.410156 515.679688 3.402344 516.289062 3.394531 C 518.921875 3.4375 520.988281 3.605469 523.199219 5.117188 C 525.386719 7.847656 525.328125 9.769531 525.261719 13.175781 C 525.265625 13.789062 525.265625 14.402344 525.269531 15.035156 C 525.277344 17.09375 525.253906 19.152344 525.234375 21.210938 C 525.234375 22.683594 525.234375 24.160156 525.234375 25.632812 C 525.238281 29.636719 525.21875 33.644531 525.191406 37.648438 C 525.164062 41.835938 525.164062 46.019531 525.160156 50.199219 C 525.148438 57.226562 525.125 64.25 525.089844 71.277344 C 525.050781 78.507812 525.023438 85.746094 525.007812 92.980469 C 525.007812 93.425781 525.003906 93.875 525.003906 94.332031 C 525 96.570312 524.996094 98.808594 524.988281 101.046875 C 524.949219 119.605469 524.878906 138.167969 524.792969 156.730469 C 525.550781 157.027344 525.550781 157.027344 526.328125 157.328125 C 529.328125 158.554688 531.929688 160.433594 534.632812 162.199219 C 535.21875 162.578125 535.808594 162.957031 536.410156 163.34375 C 536.976562 163.714844 537.542969 164.082031 538.125 164.460938 C 538.640625 164.796875 539.152344 165.132812 539.679688 165.472656 C 543.4375 168.21875 543.4375 168.21875 544.207031 170.570312 C 544.445312 172.988281 544.554688 174.609375 543.660156 176.902344 C 541.808594 179 540.25 180.085938 537.460938 180.507812 C 534.269531 180.136719 532.125 178.640625 529.445312 176.941406 C 528.882812 176.59375 528.320312 176.25 527.738281 175.890625 C 525.878906 174.738281 524.027344 173.574219 522.175781 172.410156 C 520.851562 171.585938 519.527344 170.761719 518.203125 169.9375 C 514.902344 167.882812 511.609375 165.816406 508.316406 163.75 C 506.613281 162.683594 504.90625 161.621094 503.199219 160.558594 C 502.710938 160.253906 502.21875 159.945312 501.714844 159.632812 C 500.816406 159.070312 499.914062 158.515625 499.019531 157.957031 C 496.113281 156.148438 496.113281 156.148438 495.386719 155.421875 C 495.324219 153.730469 495.300781 152.050781 495.308594 150.359375 C 495.308594 149.550781 495.308594 149.550781 495.308594 148.730469 C 495.304688 146.917969 495.308594 145.105469 495.3125 143.289062 C 495.3125 141.996094 495.3125 140.703125 495.3125 139.410156 C 495.3125 135.882812 495.316406 132.359375 495.320312 128.835938 C 495.324219 125.15625 495.324219 121.476562 495.324219 117.800781 C 495.328125 110.828125 495.332031 103.851562 495.339844 96.882812 C 495.347656 88.949219 495.351562 81.011719 495.355469 73.078125 C 495.359375 56.746094 495.371094 40.417969 495.386719 24.089844 C 494.664062 24.234375 493.9375 24.375 493.195312 24.519531 C 492.234375 24.703125 491.28125 24.886719 490.328125 25.070312 C 489.847656 25.164062 489.371094 25.257812 488.878906 25.355469 C 486.636719 25.785156 484.613281 26.050781 482.324219 26.050781 C 481.992188 42.800781 481.769531 59.546875 481.664062 76.300781 C 481.609375 84.082031 481.527344 91.859375 481.363281 99.636719 C 481.222656 106.421875 481.140625 113.199219 481.136719 119.988281 C 481.132812 123.578125 481.097656 127.164062 480.984375 130.75 C 479.816406 145.347656 479.816406 145.347656 484.765625 158.417969 C 488.773438 162.308594 493.664062 164.796875 498.800781 166.855469 C 500.929688 168.007812 501.617188 168.898438 502.578125 171.105469 C 502.578125 174.433594 502.464844 175.675781 500.328125 178.25 C 498.152344 180 496.621094 180.65625 493.769531 180.621094 C 489.953125 179.761719 486.765625 176.957031 483.628906 174.699219 C 482.863281 174.160156 482.101562 173.625 481.335938 173.09375 C 479.476562 171.785156 477.632812 170.46875 475.789062 169.140625 C 475.605469 169.683594 475.605469 169.683594 475.417969 170.230469 C 475.167969 170.9375 475.167969 170.9375 474.910156 171.65625 C 474.746094 172.121094 474.589844 172.589844 474.421875 173.074219 C 473.355469 175.398438 471.472656 176.523438 469.253906 177.636719 C 465.90625 178.191406 463.398438 177.929688 460.5625 176.003906 C 459.585938 175.253906 458.617188 174.492188 457.65625 173.714844 C 457.125 173.304688 456.59375 172.898438 456.046875 172.476562 C 454.921875 171.605469 453.796875 170.726562 452.675781 169.84375 C 450.410156 168.058594 448.117188 166.316406 445.820312 164.570312 C 444.664062 163.695312 443.515625 162.816406 442.363281 161.9375 C 438.5625 159.027344 434.730469 156.167969 430.867188 153.339844 C 425.589844 149.472656 420.386719 145.519531 415.199219 141.535156 C 407.609375 135.699219 399.988281 129.910156 392.265625 124.25 C 387.753906 120.941406 383.304688 117.558594 378.863281 114.160156 C 376.175781 112.097656 373.476562 110.046875 370.757812 108.027344 C 370.042969 107.492188 370.042969 107.492188 369.308594 106.945312 C 368.425781 106.289062 367.539062 105.632812 366.652344 104.984375 C 361.035156 100.8125 361.035156 100.8125 360.445312 98.578125 C 360.480469 96.203125 360.519531 95.023438 361.976562 93.0625 C 364.859375 91.003906 367.835938 91.125 371.246094 91.390625 C 372.339844 91.8125 373.425781 92.246094 374.511719 92.695312 C 376.246094 92.804688 376.246094 92.804688 377.78125 92.042969 C 379.707031 88.820312 380.585938 85.378906 381.574219 81.792969 C 384.570312 71.5 389.832031 62.398438 399.339844 56.757812 C 412.851562 50.84375 427.304688 51.945312 440.867188 57.109375 C 451.089844 61.464844 451.089844 61.464844 452.917969 63.292969 C 453.132812 51.433594 453.351562 39.574219 453.574219 27.359375 C 449.066406 27.960938 449.066406 27.960938 444.46875 28.582031 C 391.230469 35.507812 391.230469 35.507812 372.550781 22.128906 C 368.457031 18.867188 363.929688 15.0625 361.445312 10.367188 C 361.585938 6.738281 363.804688 3.65625 367.460938 3.34375 Z M 426.785156 77.015625 C 426.492188 79.964844 427.019531 81.863281 428.335938 84.488281 C 430.894531 89.871094 432.621094 95.0625 430.832031 100.960938 C 428.707031 105.835938 425.5625 108.246094 420.753906 110.308594 C 417.195312 111.585938 413.507812 112.292969 409.792969 112.953125 C 409.582031 113.8125 409.363281 114.679688 409.140625 115.566406 C 413.609375 119.410156 418.105469 123.167969 422.804688 126.730469 C 425.703125 128.9375 428.535156 131.222656 431.355469 133.535156 C 435.210938 136.6875 439.117188 139.753906 443.082031 142.769531 C 445.734375 144.820312 448.300781 146.96875 450.867188 149.140625 C 452.148438 150.324219 452.148438 150.324219 453.574219 150.195312 C 453.574219 127.339844 453.574219 104.484375 453.574219 80.9375 C 440.578125 74.117188 440.578125 74.117188 426.785156 77.015625 Z M 426.785156 77.015625 "/><path style=" stroke:none;fill-rule:nonzero;fill:#edf2f8;fill-opacity:1;" d="M 21.628906 3.425781 C 22.410156 3.425781 23.195312 3.421875 24.003906 3.421875 C 24.441406 3.417969 24.878906 3.410156 25.324219 3.40625 C 26.796875 3.394531 28.261719 3.402344 29.730469 3.414062 C 30.78125 3.410156 31.828125 3.402344 32.882812 3.394531 C 35.738281 3.382812 38.59375 3.386719 41.449219 3.398438 C 44.4375 3.40625 47.429688 3.398438 50.414062 3.394531 C 55.433594 3.386719 60.453125 3.394531 65.472656 3.410156 C 71.273438 3.429688 77.078125 3.421875 82.878906 3.40625 C 87.859375 3.390625 92.84375 3.386719 97.824219 3.394531 C 100.796875 3.402344 103.773438 3.402344 106.746094 3.390625 C 109.542969 3.382812 112.34375 3.386719 115.144531 3.40625 C 116.167969 3.410156 117.195312 3.410156 118.222656 3.402344 C 119.625 3.394531 121.027344 3.40625 122.429688 3.421875 C 123.214844 3.421875 124 3.425781 124.808594 3.425781 C 127.605469 3.976562 128.519531 4.765625 130.144531 7.105469 C 130.597656 9.125 130.570312 11.085938 130.539062 13.152344 C 130.542969 14.066406 130.542969 14.066406 130.546875 15.003906 C 130.550781 17.050781 130.535156 19.101562 130.515625 21.148438 C 130.515625 22.617188 130.515625 24.085938 130.515625 25.554688 C 130.519531 29.539062 130.5 33.527344 130.476562 37.515625 C 130.457031 41.683594 130.453125 45.847656 130.449219 50.015625 C 130.441406 57.007812 130.417969 64.003906 130.390625 70.996094 C 130.359375 78.203125 130.335938 85.402344 130.324219 92.605469 C 130.324219 93.050781 130.320312 93.496094 130.320312 93.953125 C 130.316406 96.179688 130.3125 98.410156 130.308594 100.636719 C 130.273438 119.117188 130.214844 137.59375 130.144531 156.074219 C 130.65625 156.273438 131.167969 156.472656 131.691406 156.675781 C 133.339844 157.355469 134.683594 158.121094 136.164062 159.109375 C 136.667969 159.445312 137.171875 159.78125 137.6875 160.125 C 138.460938 160.644531 138.460938 160.644531 139.25 161.179688 C 139.765625 161.519531 140.277344 161.863281 140.804688 162.210938 C 148.550781 167.402344 148.550781 167.402344 149.746094 169.796875 C 150.105469 173.519531 149.492188 175.390625 147.128906 178.289062 C 144.667969 179.929688 142.789062 180.140625 139.945312 179.59375 C 137.648438 178.535156 135.644531 177.121094 133.574219 175.675781 C 132.261719 174.792969 130.953125 173.902344 129.640625 173.019531 C 128.898438 172.511719 128.15625 172.003906 127.417969 171.5 C 124.539062 169.53125 121.632812 167.605469 118.722656 165.675781 C 117.648438 164.960938 116.570312 164.246094 115.488281 163.53125 C 114.957031 163.175781 114.421875 162.820312 113.875 162.453125 C 111.269531 160.726562 108.671875 158.996094 106.074219 157.265625 C 105.613281 156.957031 105.148438 156.648438 104.671875 156.328125 C 101.46875 154.191406 101.46875 154.191406 100.742188 153.460938 C 100.679688 152.472656 100.664062 151.472656 100.664062 150.480469 C 100.664062 149.511719 100.664062 149.511719 100.660156 148.527344 C 100.664062 147.816406 100.664062 147.105469 100.667969 146.367188 C 100.667969 145.625 100.667969 144.875 100.667969 144.109375 C 100.667969 141.628906 100.671875 139.152344 100.679688 136.675781 C 100.679688 134.964844 100.679688 133.25 100.679688 131.535156 C 100.683594 127.476562 100.6875 123.421875 100.695312 119.367188 C 100.703125 114.746094 100.707031 110.132812 100.710938 105.515625 C 100.714844 96.015625 100.726562 86.515625 100.742188 77.015625 C 100.242188 76.820312 99.742188 76.628906 99.234375 76.429688 C 97.164062 75.582031 95.285156 74.535156 93.339844 73.4375 C 92.554688 72.996094 91.765625 72.550781 90.980469 72.109375 C 89.75 71.414062 88.523438 70.71875 87.289062 70.023438 C 86.097656 69.347656 84.902344 68.679688 83.707031 68.003906 C 82.992188 67.601562 82.28125 67.203125 81.550781 66.789062 C 79.960938 65.808594 79.960938 65.808594 78.527344 65.90625 C 79.09375 66.40625 79.09375 66.40625 79.675781 66.917969 C 84.726562 71.621094 88.375 76.503906 88.722656 83.574219 C 88.773438 89.40625 87.539062 93.902344 84.285156 98.742188 C 77.375 105.496094 69.015625 108.683594 59.4375 108.660156 C 47.660156 108.347656 36.988281 102.222656 28.867188 94.003906 C 28.433594 93.582031 27.996094 93.15625 27.542969 92.71875 C 22.695312 87.699219 20.964844 81.28125 21.027344 74.402344 C 21.4375 66.390625 23.488281 59.148438 29.078125 53.175781 C 36.902344 46.117188 45.683594 43.851562 55.929688 44.230469 C 71.070312 45.253906 85.488281 52.71875 98.78125 59.371094 C 99.214844 59.589844 99.644531 59.804688 100.085938 60.027344 C 100.304688 49.246094 100.519531 38.464844 100.742188 27.359375 C 93.78125 28.1875 93.78125 28.1875 86.828125 29.019531 C 79.027344 29.949219 71.28125 30.753906 63.414062 30.75 C 62.773438 30.75 62.128906 30.746094 61.46875 30.746094 C 53.976562 30.683594 46.507812 30.238281 39.324219 28.011719 C 39.300781 28.53125 39.277344 29.054688 39.25 29.585938 C 38.882812 35.519531 37.964844 38.957031 33.441406 43.039062 C 29.386719 46.433594 23.871094 47.351562 18.683594 47.136719 C 13.640625 46.566406 10.796875 45.054688 7.578125 41.101562 C 4.703125 36.953125 4.90625 32.960938 5.347656 28.011719 C 6.640625 23.082031 10.1875 20.242188 14.425781 17.75 C 16.179688 16.785156 17.941406 15.851562 19.722656 14.945312 C 19.277344 14.257812 18.835938 13.566406 18.375 12.859375 C 17.449219 11.230469 17.105469 10.5625 17.152344 8.65625 C 18.988281 3.992188 18.988281 3.992188 21.628906 3.425781 Z M 21.628906 3.425781 "/><path style=" stroke:none;fill-rule:nonzero;fill:#edf2f8;fill-opacity:1;" d="M 533.863281 3.425781 C 534.640625 3.425781 535.414062 3.421875 536.210938 3.421875 C 536.855469 3.414062 536.855469 3.414062 537.519531 3.40625 C 538.96875 3.394531 540.417969 3.402344 541.867188 3.414062 C 542.902344 3.410156 543.941406 3.402344 544.980469 3.394531 C 547.800781 3.382812 550.621094 3.386719 553.445312 3.398438 C 556.394531 3.40625 559.347656 3.398438 562.296875 3.394531 C 567.253906 3.386719 572.214844 3.394531 577.171875 3.410156 C 582.902344 3.429688 588.632812 3.421875 594.367188 3.40625 C 599.285156 3.390625 604.203125 3.386719 609.121094 3.394531 C 612.0625 3.402344 615 3.402344 617.9375 3.390625 C 620.703125 3.382812 623.464844 3.386719 626.230469 3.40625 C 627.246094 3.410156 628.257812 3.410156 629.273438 3.402344 C 630.660156 3.394531 632.042969 3.40625 633.429688 3.421875 C 634.207031 3.421875 634.980469 3.425781 635.777344 3.425781 C 638.558594 3.980469 639.476562 4.777344 641.09375 7.105469 C 641.523438 9.101562 641.460938 11.03125 641.394531 13.074219 C 641.386719 13.671875 641.378906 14.277344 641.371094 14.898438 C 641.34375 16.917969 641.292969 18.941406 641.246094 20.964844 C 641.222656 22.410156 641.199219 23.859375 641.179688 25.308594 C 641.132812 28.433594 641.078125 31.554688 641.019531 34.675781 C 640.929688 39.625 640.878906 44.570312 640.835938 49.519531 C 640.832031 50.351562 640.824219 51.191406 640.816406 52.050781 C 640.800781 53.757812 640.785156 55.46875 640.773438 57.175781 C 640.734375 61.566406 640.699219 65.957031 640.652344 70.351562 C 640.648438 70.789062 640.644531 71.230469 640.636719 71.6875 C 640.5625 78.804688 640.4375 85.925781 640.289062 93.042969 C 640.144531 100.371094 640.066406 107.695312 640.046875 115.023438 C 640.03125 119.132812 639.984375 123.234375 639.859375 127.34375 C 638.453125 143.730469 638.453125 143.730469 643.542969 158.597656 C 647.496094 162.621094 652.398438 165.066406 657.648438 166.992188 C 659.390625 167.835938 659.390625 167.835938 660.273438 169.15625 C 661.058594 171.558594 661.144531 173.847656 660.695312 176.332031 C 659.269531 178.128906 658.164062 179.230469 656.121094 180.25 C 651.761719 180.339844 648.824219 179.097656 645.34375 176.613281 C 644.375 175.960938 643.410156 175.304688 642.441406 174.65625 C 641.917969 174.296875 641.394531 173.9375 640.851562 173.566406 C 637.597656 171.378906 634.277344 169.289062 630.96875 167.179688 C 628.984375 165.917969 627.007812 164.652344 625.0625 163.324219 C 623.382812 162.226562 621.726562 161.527344 619.839844 160.835938 C 616.433594 159.425781 613.671875 157.980469 611.691406 154.769531 C 609.917969 147.867188 610.597656 140.429688 610.925781 133.375 C 611.042969 130.703125 611.09375 128.03125 611.148438 125.359375 C 611.265625 120.132812 611.457031 114.90625 611.691406 109.6875 C 609.8125 109.613281 607.933594 109.5625 606.054688 109.523438 C 605.265625 109.488281 605.265625 109.488281 604.453125 109.457031 C 600.871094 109.398438 598.839844 109.882812 596.011719 112.296875 C 595.042969 113.847656 595.042969 113.847656 594.542969 115.605469 C 594.335938 116.234375 594.132812 116.859375 593.917969 117.507812 C 593.25 120.039062 592.8125 122.570312 592.476562 125.164062 C 592.027344 126.90625 591.546875 127.542969 590.128906 128.632812 C 587.671875 129.453125 585.488281 129.71875 582.941406 129.285156 C 581.082031 128.351562 579.554688 127.101562 577.960938 125.773438 C 577.039062 125.046875 576.117188 124.316406 575.195312 123.59375 C 574.738281 123.226562 574.28125 122.863281 573.8125 122.488281 C 571.917969 121 569.964844 119.601562 567.996094 118.21875 C 567.246094 117.6875 566.492188 117.15625 565.746094 116.621094 C 565.359375 116.347656 564.972656 116.074219 564.578125 115.792969 C 562.25 114.136719 559.9375 112.460938 557.625 110.789062 C 557.128906 110.429688 556.636719 110.070312 556.128906 109.707031 C 555.121094 108.976562 554.109375 108.246094 553.101562 107.515625 C 551.089844 106.0625 549.074219 104.613281 547.0625 103.160156 C 545.121094 101.761719 543.179688 100.355469 541.238281 98.949219 C 539.816406 97.921875 538.394531 96.90625 536.96875 95.882812 C 536.082031 95.246094 535.191406 94.601562 534.308594 93.964844 C 533.898438 93.675781 533.492188 93.386719 533.078125 93.089844 C 531.058594 91.625 529.3125 90.300781 528.058594 88.121094 C 527.710938 84.992188 527.585938 83.636719 529.285156 80.976562 C 530.671875 79.628906 530.671875 79.628906 531.976562 78.976562 C 532.707031 79.019531 533.433594 79.066406 534.1875 79.113281 C 537.019531 79.265625 539.75 79.371094 542.433594 78.320312 C 544.953125 76.023438 546.269531 72.734375 547.714844 69.699219 C 550.996094 63.21875 557.875 58.984375 564.492188 56.570312 C 568.195312 55.394531 571.113281 55.453125 575.101562 55.453125 C 575.101562 47.257812 575.101562 39.066406 575.101562 30.625 C 571.867188 30.625 568.632812 30.625 565.300781 30.625 C 552.347656 29.246094 541.894531 24.023438 532.632812 14.945312 C 532.25 14.578125 531.867188 14.210938 531.476562 13.835938 C 529.914062 12.191406 529.363281 11.320312 529.363281 9.019531 C 531.0625 4.035156 531.0625 4.035156 533.863281 3.425781 Z M 604.503906 28.664062 C 604.503906 29.265625 604.503906 29.863281 604.503906 30.484375 C 604.503906 36.136719 604.488281 41.789062 604.449219 47.441406 C 604.429688 50.347656 604.417969 53.253906 604.425781 56.164062 C 604.429688 58.964844 604.414062 61.769531 604.386719 64.574219 C 604.378906 65.644531 604.378906 66.714844 604.382812 67.785156 C 604.394531 69.28125 604.375 70.78125 604.355469 72.277344 C 604.351562 73.132812 604.347656 73.984375 604.34375 74.867188 C 603.851562 77.015625 603.851562 77.015625 601.96875 78.628906 C 599.929688 79.628906 599.929688 79.628906 598.175781 79.457031 C 597.585938 79.242188 596.988281 79.03125 596.378906 78.8125 C 588.742188 76.554688 581.09375 76.964844 573.976562 80.515625 C 570.339844 82.550781 568.097656 84.230469 566.769531 88.328125 C 565.496094 91.0625 563.421875 93.109375 561.382812 95.3125 C 562.300781 97.578125 563.277344 98.5 565.382812 99.71875 C 565.855469 100 566.332031 100.28125 566.816406 100.566406 C 567.359375 100.875 567.359375 100.875 567.917969 101.191406 C 568.109375 100.667969 568.308594 100.152344 568.515625 99.613281 C 571.222656 92.757812 573.695312 89.535156 580.371094 86.289062 C 588.894531 82.8125 598.09375 85.378906 606.234375 88.734375 C 608.078125 89.566406 609.882812 90.484375 611.691406 91.390625 C 611.691406 70.261719 611.691406 49.128906 611.691406 27.359375 C 608.78125 27.359375 607.15625 27.679688 604.503906 28.664062 Z M 604.503906 28.664062 "/><path style=" stroke:none;fill-rule:nonzero;fill:#edf2f8;fill-opacity:1;" d="M 292.835938 3.835938 C 312.460938 3.835938 332.082031 3.835938 352.296875 3.835938 C 354.910156 8.410156 354.910156 8.410156 354.957031 10.039062 C 353.945312 12.402344 352.449219 14.324219 350.867188 16.332031 C 350.15625 17.257812 349.445312 18.1875 348.734375 19.113281 C 348.355469 19.601562 347.984375 20.085938 347.59375 20.589844 C 345.546875 23.265625 343.550781 25.988281 341.558594 28.707031 C 341.179688 29.21875 340.800781 29.730469 340.410156 30.257812 C 339.695312 31.230469 338.980469 32.207031 338.273438 33.183594 C 337.613281 34.074219 336.941406 34.960938 336.253906 35.832031 C 334.492188 37.898438 334.492188 37.898438 334.15625 40.441406 C 334.945312 42.480469 336.410156 43.960938 337.839844 45.570312 C 338.503906 46.332031 339.15625 47.089844 339.816406 47.855469 C 340.152344 48.25 340.488281 48.636719 340.839844 49.042969 C 342.421875 50.910156 343.929688 52.832031 345.433594 54.757812 C 345.726562 55.132812 346.019531 55.503906 346.320312 55.890625 C 346.910156 56.652344 347.507812 57.417969 348.097656 58.179688 C 349.75 60.300781 351.410156 62.410156 353.070312 64.519531 C 353.679688 65.292969 354.289062 66.066406 354.898438 66.84375 C 355.332031 67.394531 355.769531 67.949219 356.214844 68.523438 C 354.5625 71.558594 352.851562 74.140625 350.582031 76.769531 C 345.667969 82.53125 341.140625 88.585938 336.617188 94.65625 C 339 97.882812 341.445312 101.058594 343.925781 104.210938 C 344.230469 104.597656 344.535156 104.988281 344.847656 105.382812 C 346.476562 107.457031 348.113281 109.527344 349.761719 111.585938 C 350.089844 112 350.417969 112.414062 350.757812 112.839844 C 351.390625 113.632812 352.023438 114.429688 352.664062 115.21875 C 353.964844 116.855469 354.894531 118.132812 355.5625 120.136719 C 354.605469 121.578125 353.640625 122.855469 352.542969 124.183594 C 352.21875 124.578125 351.898438 124.976562 351.566406 125.390625 C 350.507812 126.691406 349.445312 127.988281 348.375 129.285156 C 347.640625 130.195312 346.902344 131.097656 346.167969 132.007812 C 345.800781 132.453125 345.4375 132.90625 345.058594 133.367188 C 344.335938 134.261719 343.605469 135.160156 342.882812 136.054688 C 341.367188 137.921875 339.851562 139.78125 338.304688 141.613281 C 337.882812 142.128906 337.457031 142.644531 337.023438 143.171875 C 336.667969 143.589844 336.3125 144.011719 335.945312 144.449219 C 335.210938 145.574219 335.210938 145.574219 335.328125 146.816406 C 336.28125 148.945312 337.722656 150.648438 339.1875 152.441406 C 339.507812 152.839844 339.824219 153.242188 340.148438 153.65625 C 341.757812 155.683594 343.394531 157.675781 345.078125 159.640625 C 350.085938 165.59375 350.085938 165.59375 350.214844 169.429688 C 349.78125 173.078125 348.738281 175.453125 345.925781 177.882812 C 343.425781 179.132812 341.988281 179.296875 339.226562 178.945312 C 333.847656 176.164062 330.441406 170.789062 326.855469 166.066406 C 324.613281 163.121094 322.296875 160.246094 319.953125 157.382812 C 316.851562 153.589844 313.839844 149.742188 310.867188 145.847656 C 308.933594 143.332031 306.929688 140.886719 304.925781 138.433594 C 302.230469 135.132812 299.546875 131.824219 296.921875 128.46875 C 296.136719 127.472656 296.136719 127.472656 295.339844 126.457031 C 293.445312 123.691406 293.445312 123.691406 293.492188 122.097656 C 294.457031 120.601562 295.414062 119.328125 296.554688 117.972656 C 296.878906 117.578125 297.203125 117.179688 297.535156 116.769531 C 298.226562 115.925781 298.921875 115.082031 299.613281 114.242188 C 301.34375 112.144531 303.03125 110.011719 304.722656 107.886719 C 306.523438 105.625 308.328125 103.378906 310.195312 101.171875 C 310.683594 100.597656 311.167969 100.027344 311.660156 99.433594 C 312.085938 98.945312 312.507812 98.460938 312.945312 97.957031 C 313.855469 96.699219 313.855469 96.699219 313.726562 95.371094 C 312.824219 93.425781 311.605469 91.890625 310.273438 90.207031 C 309.988281 89.835938 309.699219 89.46875 309.402344 89.09375 C 307.484375 86.648438 305.535156 84.230469 303.59375 81.808594 C 302.277344 80.171875 300.972656 78.53125 299.667969 76.890625 C 298.746094 75.738281 297.804688 74.601562 296.867188 73.460938 C 296.3125 72.765625 295.761719 72.070312 295.207031 71.378906 C 294.714844 70.777344 294.226562 70.179688 293.722656 69.558594 C 292.835938 67.867188 292.835938 67.867188 293.125 66.289062 C 294.445312 64.101562 295.984375 62.152344 297.613281 60.191406 C 298.324219 59.328125 299.027344 58.457031 299.730469 57.589844 C 300.101562 57.136719 300.46875 56.683594 300.84375 56.214844 C 302.789062 53.800781 304.675781 51.34375 306.558594 48.878906 C 306.910156 48.417969 307.261719 47.964844 307.625 47.488281 C 309.550781 44.976562 311.371094 42.425781 313.09375 39.773438 C 312.363281 38.839844 311.636719 37.914062 310.902344 36.988281 C 310.253906 36.160156 309.609375 35.339844 308.960938 34.515625 C 307.0625 32.097656 305.164062 29.683594 303.261719 27.273438 C 302.378906 26.15625 301.507812 25.035156 300.632812 23.914062 C 299.226562 22.109375 297.785156 20.335938 296.332031 18.570312 C 295.535156 17.578125 294.738281 16.589844 293.941406 15.597656 C 293.359375 14.90625 293.359375 14.90625 292.761719 14.199219 C 291.769531 12.949219 290.914062 11.8125 290.222656 10.367188 C 290.566406 8.246094 290.566406 8.246094 291.53125 6.449219 C 291.960938 5.585938 292.394531 4.722656 292.835938 3.835938 Z M 320.933594 61.988281 C 320.285156 62.957031 320.285156 62.957031 319.625 63.949219 C 322.429688 67.394531 325.234375 70.847656 328.121094 74.402344 C 328.769531 73.753906 329.414062 73.109375 330.082031 72.441406 C 328.925781 71.066406 327.765625 69.691406 326.609375 68.316406 C 326.121094 67.734375 326.121094 67.734375 325.621094 67.140625 C 325.304688 66.761719 324.984375 66.386719 324.65625 65.996094 C 324.222656 65.480469 324.222656 65.480469 323.777344 64.949219 C 322.867188 63.917969 321.914062 62.949219 320.933594 61.988281 Z M 320.28125 115.566406 C 319.632812 116.535156 319.632812 116.535156 318.972656 117.527344 C 320.25 119.132812 321.53125 120.738281 322.8125 122.34375 C 323.175781 122.800781 323.539062 123.257812 323.914062 123.726562 C 324.265625 124.167969 324.609375 124.601562 324.972656 125.054688 C 325.292969 125.460938 325.617188 125.859375 325.945312 126.277344 C 326.851562 127.402344 326.851562 127.402344 328.121094 128.632812 C 328.554688 127.984375 328.984375 127.339844 329.425781 126.671875 C 328.273438 125.1875 327.117188 123.703125 325.953125 122.222656 C 325.46875 121.589844 325.46875 121.589844 324.96875 120.949219 C 324.488281 120.339844 324.488281 120.339844 324.003906 119.714844 C 323.714844 119.347656 323.421875 118.972656 323.121094 118.585938 C 322.230469 117.515625 321.28125 116.535156 320.28125 115.566406 Z M 320.28125 115.566406 "/><path style=" stroke:none;fill-rule:nonzero;fill:#edf2f8;fill-opacity:1;" d="M 586.65625 141.785156 C 589.445312 143.355469 591.941406 145.207031 594.5 147.132812 C 595.609375 147.957031 596.722656 148.789062 597.835938 149.613281 C 598.398438 150.035156 598.964844 150.460938 599.550781 150.898438 C 602.171875 152.851562 604.808594 154.789062 607.445312 156.730469 C 608.480469 157.488281 609.511719 158.253906 610.550781 159.011719 C 611.058594 159.390625 611.574219 159.769531 612.101562 160.160156 C 616.757812 163.589844 616.757812 163.589844 618.308594 164.734375 C 619.339844 165.492188 620.367188 166.253906 621.402344 167.007812 C 624.050781 168.964844 626.703125 170.917969 629.355469 172.875 C 629.890625 173.269531 630.433594 173.667969 630.992188 174.082031 C 632.050781 174.859375 633.105469 175.644531 634.167969 176.421875 C 636.378906 178.054688 638.597656 179.683594 640.832031 181.285156 C 641.484375 181.753906 642.140625 182.21875 642.808594 182.703125 C 643.355469 183.085938 643.902344 183.476562 644.46875 183.875 C 645.949219 185.046875 646.269531 185.707031 646.5 187.570312 C 646.679688 192.203125 646.679688 192.203125 644.769531 194.667969 C 642.65625 196.226562 641.289062 196.898438 638.628906 196.851562 C 632.308594 195.703125 626.273438 190.808594 621.042969 187.316406 C 620.289062 186.816406 619.539062 186.316406 618.78125 185.824219 C 617.300781 184.839844 615.820312 183.863281 614.339844 182.878906 C 611.820312 181.207031 609.289062 179.558594 606.75 177.925781 C 606.121094 177.515625 606.121094 177.515625 605.484375 177.101562 C 602.714844 175.3125 599.9375 173.539062 597.160156 171.765625 C 596.433594 171.308594 595.714844 170.847656 594.96875 170.371094 C 593.554688 169.472656 592.136719 168.566406 590.71875 167.667969 C 576.785156 158.789062 576.785156 158.789062 574.445312 154.117188 C 573.914062 149.890625 574.5625 146.484375 577.0625 143.007812 C 579.964844 140.496094 583.140625 140.304688 586.65625 141.785156 Z M 586.65625 141.785156 "/></g></svg>